<svg xmlns="http://www.w3.org/2000/svg" width="97" height="124" viewBox="0 0 97 124">
    <g fill="none" fill-rule="evenodd">
        <g>
            <g transform="translate(-171.000000, -8635.000000) translate(171.000000, 8635.000000)">
                <rect width="97" height="124" rx="8"/>
                <g fill="#000" fill-rule="nonzero">
                    <path d="M60.4 84.9c-.3 0-.7-.2-.9-.4L40 59.9 29.2 67c-.3.2-.7.2-1.1.1-.4-.1-.6-.4-.7-.8l-2.7-10.8-13 3.6c-.4.1-.9 0-1.2-.4-.3-.4-.4-.8-.2-1.2l5-10.9L.7 40c-.4-.2-.7-.6-.7-1.1 0-.5.3-.9.8-1l12.4-4.1-10.4-14c-.3-.4-.3-.9-.1-1.3.2-.4.7-.6 1.2-.6L22 20.4 22.9 6c0-.5.3-.9.8-1 .4-.2.9 0 1.2.3L35 16.5 40.9.8c.2-.5.6-.8 1.1-.8.5 0 .9.3 1.1.8l4.7 15.3L58.6 1.9c.3-.4.8-.6 1.3-.4.5.2.8.6.8 1.1l-.6 14.6L78.7 12c.5-.1 1 .1 1.3.5.3.4.3 1 0 1.4L69.6 27.5l17.2 2.6c.5.1.9.5 1 1 .1.5-.2 1-.6 1.2L72 40l15.7 8.2c.5.3.7.8.6 1.3-.1.5-.6.9-1.2.9l-21.5-1.2 1.5 9.2c.1.4-.1.8-.4 1.1-.3.3-.8.3-1.2.2l-8.8-3.6 4.9 27.3c.1.5-.2 1-.7 1.3-.2.2-.4.2-.5.2zM40.2 57.2c.3 0 .7.2.9.4l17.3 21.7L54 54.4c-.1-.4.1-.8.4-1.1.3-.3.8-.3 1.2-.2l8.8 3.6-1.4-8.6c-.1-.3 0-.7.3-1 .2-.3.6-.4.9-.4l17.6 1-12.9-6.8c-.4-.2-.6-.6-.6-1s.2-.8.6-1l14-7.1-15.6-2.3c-.4-.1-.7-.3-.9-.7-.2-.4-.1-.8.2-1.1L76 15.3 59.2 20c-.4.1-.7 0-1-.2-.3-.2-.5-.6-.4-1l.5-12.5-10 13.1c-.3.3-.7.5-1.1.4-.4-.1-.8-.4-.9-.8L42 4.9l-5.3 14.3c-.1.4-.5.7-.9.7-.4.1-.8-.1-1.1-.4L25.2 8.9l-.9 12.9c0 .3-.2.6-.4.8-.2.2-.6.3-.9.3L6.3 20.6 16 33.7c.2.3.3.7.2 1-.1.4-.4.6-.7.8L4.3 39.1l13 5.9c.3.1.5.4.6.7.1.3.1.6 0 .9l-4.5 9.6L25.2 53c.3-.1.6 0 .9.1.3.2.5.4.5.7l2.7 10.4 10.3-6.8c.2-.1.4-.2.6-.2z" transform="translate(48.862500, 62.450000) scale(-1, 1) translate(-48.862500, -62.450000) translate(4.700000, 20.000000)"/>
                </g>
            </g>
        </g>
    </g>
</svg>
