<svg width="58.87px" height="58.48px" viewBox="0 0 58.87 " version="1.1" xmlns="http://www.w3.org/2000/svg" xmlns:xlink="http://www.w3.org/1999/xlink">
    <g id="Page-1" stroke="none" stroke-width="1" fill="white" fill-rule="nonzero">
        <g id="callout" fill="#000000" fill-rule="nonzero">
            <path d="M29.435,55.786 L35.922,47.155 L36.723,47.755 L35.922,47.155 C36.123,46.897 36.408,46.755 36.723,46.755 L36.723,46.755 L53.012,46.755 C54.071,46.755 55.012,46.326 55.727,45.612 C56.413,44.925 56.842,43.954 56.842,42.896 L56.842,5.859 C56.842,4.801 56.412,3.859 55.727,3.144 L55.727,3.144 L55.727,3.144 L55.67,3.087 C54.984,2.43 54.041,2.03 53.012,2.03 L5.858,2.03 C4.8,2.03 3.858,2.459 3.143,3.144 L3.143,3.144 L3.143,3.144 L3.086,3.201 C2.429,3.887 2.029,4.83 2.029,5.859 L2.029,42.896 C2.029,43.954 2.458,44.925 3.144,45.612 L3.144,45.612 L3.201,45.669 C3.887,46.355 4.83,46.755 5.859,46.755 L22.148,46.755 C22.52,46.755 22.834,46.955 23.005,47.241 L29.435,55.786 Z M37.208,48.756 L30.291,57.986 C30.234,58.1 30.148,58.186 30.034,58.272 C29.605,58.615 28.948,58.529 28.634,58.072 L28.634,58.072 L21.661,48.756 L5.858,48.756 C4.286,48.756 2.829,48.127 1.8,47.098 C1.772,47.098 1.743,47.07 1.714,47.041 L1.714,47.041 C0.657,45.983 0,44.525 0,42.896 L0,5.859 C0,4.287 0.628,2.83 1.657,1.772 C1.686,1.772 1.714,1.744 1.714,1.715 L1.714,1.715 C2.8,0.657 4.257,0 5.858,0 L53.011,0 C54.583,0 56.04,0.629 57.07,1.658 C57.099,1.686 57.127,1.715 57.156,1.715 L57.156,1.715 C58.213,2.801 58.871,4.258 58.871,5.859 L58.871,42.896 C58.871,44.525 58.213,45.983 57.156,47.041 C56.07,48.099 54.613,48.756 53.011,48.756 L37.208,48.756 Z" id="Shape"></path>
        </g>
    </g>
</svg>