<?xml version="1.0" encoding="UTF-8"?>
<svg width="97px" height="124px" viewBox="0 0 97 124" version="1.1" xmlns="http://www.w3.org/2000/svg" xmlns:xlink="http://www.w3.org/1999/xlink">
    <title>6D4C5FA1-6AEA-48DE-BEA8-100886472AD3</title>
    <g id="Page-1" stroke="none" stroke-width="1" fill="none" fill-rule="evenodd">
        <g id="Constellation-Canvas" transform="translate(-40.000000, -8635.000000)">
            <g id="Lego" transform="translate(40.000000, 8635.000000)">
                <rect id="Rectangle" x="0" y="0" width="97" height="124" rx="8"></rect>
                <g id="thoughbubble" transform="translate(6.800000, 30.000000)" fill="#000000" fill-rule="nonzero">
                    <g id="Group">
                        <path d="M15.4,51.5 L15.3,51.5 C12,51.5 9.4,53.5 9.4,56 C9.4,58.6 11.9,60.7 15.3,60.7 L15.4,60.7 C18.7,60.7 21.3,58.7 21.3,56.2 C21.3,53.7 18.7,51.6 15.4,51.5 Z M15.3,58.5 L15.3,58.5 C13.2,58.5 11.5,57.4 11.5,56.1 C11.5,54.9 13.2,53.8 15.1,53.8 L15.2,53.8 C17.2,53.8 18.9,54.9 18.9,56.2 C19,57.5 17.3,58.5 15.3,58.5 Z" id="Shape"></path>
                        <path d="M4.7,57.1 L4.7,57.1 C2.1,57.1 0.2,58.6 0.1,60.6 C0.1,62.6 2,64.2 4.5,64.2 L4.6,64.2 C7.1,64.2 9,62.7 9.1,60.7 C9.2,58.7 7.2,57.1 4.7,57.1 Z M4.7,61.9 L4.7,61.9 C3.4,61.9 2.4,61.2 2.4,60.6 C2.4,60 3.3,59.4 4.6,59.4 L4.7,59.4 C6,59.4 6.9,60.1 6.9,60.7 C6.9,61.3 6,61.9 4.7,61.9 Z" id="Shape"></path>
                        <path d="M82.4,29.2 C82.4,23.2 77.5,18.1 70.5,16.6 C70.5,16.6 70.5,16.6 70.5,16.5 C70.5,9.3 63.4,3.4 54.7,3.4 C52,3.4 49.3,4 46.9,5.1 C43.9,1.9 39.3,0 34.4,0 C27.4,0 21.3,3.8 19.3,9.2 C18.8,9.2 18.4,9.1 18,9.1 C18,9.1 18,9.1 18,9.1 C13.8,9.1 9.9,10.4 6.9,12.8 C3.8,15.3 2.1,18.6 2.1,22.1 C2.1,24 2.7,26 3.7,27.8 C1.3,30.1 3.55271368e-15,33.1 3.55271368e-15,36.2 C3.55271368e-15,43.4 7.1,49.3 15.8,49.3 C17.1,49.3 18.5,49.1 19.9,48.8 C22.5,53.3 28,56.3 34.2,56.3 C38.3,56.3 42.2,55 45.2,52.6 C48,54.4 51.4,55.4 55,55.4 C63.7,55.4 70.8,49.5 70.8,42.4 C70.8,42.2 70.8,41.9 70.8,41.7 C77.6,40.2 82.4,35.1 82.4,29.2 Z M68.8,38.9 C68.4,39 68,39.2 67.7,39.6 C67.5,40 67.4,40.4 67.5,40.8 C67.6,41.3 67.7,41.9 67.7,42.4 C67.7,47.9 62,52.3 55,52.3 C51.6,52.3 48.5,51.3 46,49.4 C45.4,48.9 44.5,49 44,49.5 C41.5,51.9 38,53.2 34.2,53.2 C28.8,53.2 23.9,50.5 22.2,46.4 C21.9,45.8 21.4,45.4 20.8,45.4 C20.7,45.4 20.5,45.4 20.4,45.5 C18.8,46 17.4,46.2 15.9,46.2 C8.9,46.2 3.2,41.7 3.2,36.3 C3.2,33.7 4.5,31.2 6.8,29.4 C7.5,28.9 7.6,27.9 7.1,27.2 C5.9,25.6 5.3,23.9 5.3,22.2 C5.3,19.6 6.6,17.2 8.9,15.3 C11.3,13.4 14.6,12.3 18,12.3 C18.7,12.3 19.4,12.4 20.2,12.5 C21,12.6 21.7,12.1 21.9,11.3 C23,6.6 28.3,3.2 34.4,3.2 C38.9,3.2 43,5 45.3,8.1 C45.8,8.7 46.6,8.9 47.3,8.5 C49.5,7.2 52.1,6.6 54.7,6.6 C61.7,6.6 67.4,11.1 67.4,16.5 C67.4,16.7 67.4,16.9 67.3,17.2 C67.3,17.3 67.3,17.5 67.2,17.6 C67.1,18 67.2,18.4 67.5,18.8 C67.8,19.1 68.1,19.4 68.5,19.4 C74.7,20.2 79.2,24.3 79.2,29.1 C79.3,34 74.9,38.1 68.8,38.9 Z" id="Shape"></path>
                    </g>
                </g>
            </g>
        </g>
    </g>
</svg>