<?xml version="1.0" encoding="UTF-8"?>
<svg width="56px" height="54px" viewBox="0 0 56 54" version="1.1" xmlns="http://www.w3.org/2000/svg" xmlns:xlink="http://www.w3.org/1999/xlink">
    <g id="Page-1" stroke="#000000" stroke-width="0.5" fill="#fff">
        <path d="M50.983,0.5 C51.8707024,0.5 52.6854909,0.841151142 53.2809243,1.404783 C53.9799733,2.20666555 54.313,2.97155354 54.313,3.829 L54.313,3.829 L54.313,40.866 C54.313,41.7860585 53.9409547,42.6310688 53.3446941,43.2281993 C52.7227378,43.8492857 51.9048879,44.225 50.983,44.225 L50.983,44.225 L34.6681993,44.225 C34.0805572,44.283014 33.7486265,44.4967435 33.4933058,44.8245926 L33.4933058,44.8245926 L27.4057625,52.9241126 L21.3898841,44.9294499 C21.1301014,44.5136044 20.6664092,44.225 20.119,44.225 L20.119,44.225 L3.83,44.225 C2.9415761,44.225 2.12609846,43.8826353 1.53196105,43.2916135 C0.834024627,42.5190804 0.5,41.7279951 0.5,40.866 L0.5,40.866 L0.5,3.829 C0.5,2.94146139 0.841025228,2.12680986 1.40445319,1.53136638 C2.20645502,0.832271357 2.97145896,0.5 3.829,0.5 L3.829,0.5 Z" id="chat-bubble"></path>
    </g>
</svg>