<svg xmlns="http://www.w3.org/2000/svg" width="97" height="124" viewBox="0 0 97 124">
    <g fill="none" fill-rule="evenodd">
        <g>
            <g transform="translate(-40.000000, -9043.000000) translate(40.000000, 9043.000000)">
                <rect width="97" height="124" rx="8"/>
                <g fill="#000" fill-rule="nonzero">
                    <path d="M-.6 49.93c-.525-.37-.682-.93-.397-1.414.284-.485.953-.802 1.696-.802h10.388c1.004.01 1.81.588 1.81 1.299 0 .71-.806 1.288-1.81 1.298H.699c-.487 0-.955-.136-1.299-.38z" transform="translate(48.999136, 62.221793) rotate(-315.000000) translate(-48.999136, -62.221793) translate(21.552717, 34.775397) translate(5.880256, 49.012536) rotate(315.000000) translate(-5.880256, -49.012536)"/>
                    <path d="M13.543 35.789c-.525-.372-.683-.93-.398-1.415.284-.486.953-.802 1.696-.802h10.388c1.004.01 1.81.588 1.81 1.298 0 .71-.806 1.289-1.81 1.299H14.84c-.487 0-.954-.137-1.298-.38z" transform="translate(48.999136, 62.221793) rotate(-315.000000) translate(-48.999136, -62.221793) translate(21.552717, 34.775397) translate(20.022392, 34.870400) rotate(315.000000) translate(-20.022392, -34.870400)"/>
                    <path d="M28.392 20.94c-.525-.372-.682-.93-.398-1.416.284-.485.954-.801 1.696-.801h10.388c1.004.01 1.811.588 1.811 1.298 0 .71-.807 1.289-1.81 1.299H29.69c-.487 0-.954-.137-1.298-.38z" transform="translate(48.999136, 62.221793) rotate(-315.000000) translate(-48.999136, -62.221793) translate(21.552717, 34.775397) translate(34.871634, 20.021158) rotate(315.000000) translate(-34.871634, -20.021158)"/>
                    <path d="M42.53 6.794c-.524-.37-.68-.927-.397-1.41.283-.484.95-.8 1.691-.8h10.354c.66-.005 1.274.24 1.606.643.333.403.333.901 0 1.304-.332.403-.946.649-1.606.642H43.824c-.485 0-.951-.136-1.294-.379z" transform="translate(48.999136, 62.221793) rotate(-315.000000) translate(-48.999136, -62.221793) translate(21.552717, 34.775397) translate(49.013770, 5.879067) rotate(315.000000) translate(-49.013770, -5.879067)"/>
                </g>
            </g>
        </g>
    </g>
</svg>
