<?xml version="1.0" encoding="UTF-8"?>
<svg width="92px" height="19px" viewBox="0 0 92 19" version="1.1" xmlns="http://www.w3.org/2000/svg" xmlns:xlink="http://www.w3.org/1999/xlink">
    <title>DF1C4FF9-E429-4151-AE88-0BC9FFFDB769</title>
    <g id="Page-1" stroke="none" stroke-width="1" fill="none" fill-rule="evenodd">
        <g id="Constellation-Canvas" transform="translate(-173.000000, -7893.000000)" fill="#000000" fill-rule="nonzero">
            <g id="Relationships" transform="translate(0.000000, 7452.000000)">
                <g id="Lego" transform="translate(175.000000, 450.000000)">
                    <path id="Line" d="M14.5,-6.5 L14.5,-0.5 L20.5,-0.5 C21.0522847,-0.5 21.5,-0.0522847498 21.5,0.5 C21.5,1.01283584 21.1139598,1.43550716 20.6166211,1.49327227 L20.5,1.5 L14.5,1.5 L14.5,7.5 L0.5,0.5 L14.5,-6.5 Z M73.5,-6.5 L87.5,0.5 L73.5,7.5 L73.5,1.5 L69.5,1.5 C68.9477153,1.5 68.5,1.05228475 68.5,0.5 C68.5,-0.0128358391 68.8860402,-0.435507161 69.3833789,-0.493272269 L69.5,-0.5 L73.5,-0.5 L73.5,-6.5 Z M34.5,-0.5 C35.0522847,-0.5 35.5,-0.0522847498 35.5,0.5 C35.5,1.01283584 35.1139598,1.43550716 34.6166211,1.49327227 L34.5,1.5 L27.5,1.5 C26.9477153,1.5 26.5,1.05228475 26.5,0.5 C26.5,-0.0128358391 26.8860402,-0.435507161 27.3833789,-0.493272269 L27.5,-0.5 L34.5,-0.5 Z M48.5,-0.5 C49.0522847,-0.5 49.5,-0.0522847498 49.5,0.5 C49.5,1.01283584 49.1139598,1.43550716 48.6166211,1.49327227 L48.5,1.5 L41.5,1.5 C40.9477153,1.5 40.5,1.05228475 40.5,0.5 C40.5,-0.0128358391 40.8860402,-0.435507161 41.3833789,-0.493272269 L41.5,-0.5 L48.5,-0.5 Z M62.5,-0.5 C63.0522847,-0.5 63.5,-0.0522847498 63.5,0.5 C63.5,1.01283584 63.1139598,1.43550716 62.6166211,1.49327227 L62.5,1.5 L55.5,1.5 C54.9477153,1.5 54.5,1.05228475 54.5,0.5 C54.5,-0.0128358391 54.8860402,-0.435507161 55.3833789,-0.493272269 L55.5,-0.5 L62.5,-0.5 Z"></path>
                </g>
            </g>
        </g>
    </g>
</svg>