<?xml version="1.0" encoding="UTF-8"?>
<svg width="97px" height="124px" viewBox="0 0 97 124" version="1.1" xmlns="http://www.w3.org/2000/svg" xmlns:xlink="http://www.w3.org/1999/xlink">
    <title>BE1AD735-DF67-4CD4-9649-10E3A0297106</title>
    <g id="Page-1" stroke="none" stroke-width="1" fill="none" fill-rule="evenodd">
        <g id="Constellation-Canvas" transform="translate(-40.000000, -8885.000000)">
            <g id="Lego" transform="translate(40.000000, 8885.000000)">
                <rect id="Rectangle" x="0" y="0" width="97" height="124" rx="8"></rect>
                <g id="zigzag" transform="translate(8.000000, 54.000000)" fill="#000000" fill-rule="nonzero">
                    <path d="M78.322291,0.497100849 L72.4926959,10.5746083 L66.6626124,0.497100849 C66.2797996,-0.165700283 65.689467,-0.165700283 65.3066542,0.497100849 L59.48243,10.5727773 L53.6630888,0.498931674 C53.2807642,-0.162038632 52.6899434,-0.16570047 52.3066423,0.498931674 L46.483883,10.5727773 L40.6625886,0.498931674 C40.2797757,-0.163869458 39.6889549,-0.163869458 39.306142,0.498931674 L33.4853359,10.5727773 L27.6645298,0.498931674 C27.2817169,-0.16570047 26.6913844,-0.162038632 26.3075949,0.498931674 L20.4902068,10.5727773 L14.6757483,0.498931674 C14.2934238,-0.162038632 13.7021146,-0.16570047 13.3188135,0.498931674 L7.49800735,10.5727773 L1.67817781,0.498931674 C1.27192744,-0.204150239 0.640090963,-0.152883756 0.265090619,0.603295466 C-0.109421425,1.36496754 -0.0840308015,2.55141827 0.321731271,3.25266917 L6.81978413,14.5019798 C7.20259698,15.1629501 7.79341782,15.1666119 8.17623067,14.5019798 L13.9965485,4.42813419 L19.8114952,14.5019798 C20.1943081,15.1647809 20.7851289,15.1647809 21.1689184,14.5019798 L26.9863065,4.42813419 L32.8071127,14.5019798 C33.1899255,15.1647809 33.7807464,15.1647809 34.1635592,14.5019798 L39.9843654,4.42813419 L45.8056598,14.5019798 C46.1884726,15.1647809 46.7792935,15.1647809 47.1621063,14.5019798 L52.9848656,4.42813419 L58.8037186,14.5019798 C59.1860432,15.1629501 59.776864,15.1684429 60.1601652,14.5038108 L65.9853658,4.42630337 L71.8149609,14.5038108 C72.0063673,14.8352115 72.2495315,15 72.4926959,15 C72.7358602,15 72.9790244,14.8352115 73.1704309,14.503811 L79.6777611,3.25450037 C80.0840114,2.55141845 80.1094021,1.36679874 79.7353783,0.605126666 C79.3613546,-0.156545406 78.7275649,-0.204150052 78.322291,0.497100849 Z" id="Path"></path>
                </g>
            </g>
        </g>
    </g>
</svg>